<?xml version="1.0" encoding="utf-8"?>
<!-- Generator: Adobe Illustrator 25.4.1, SVG Export Plug-In . SVG Version: 6.00 Build 0)  -->
<svg version="1.1" id="Layer_1" xmlns="http://www.w3.org/2000/svg" xmlns:xlink="http://www.w3.org/1999/xlink" x="0px" y="0px"
	 viewBox="0 0 205 190.5" style="enable-background:new 0 0 205 190.5;" xml:space="preserve">
<style type="text/css">
	.st0{fill:none;stroke:#FFFFFF;stroke-width:3;}
	.st1{fill:none;stroke:#FFFFFF;stroke-width:3;stroke-linecap:round;stroke-linejoin:round;}
</style>
<g id="Page-1">
	<g id="overview" transform="translate(-263.000000, -105.000000)">
		<g id="Group-2" transform="translate(200.000000, 81.000000)">
			<g id="Group" transform="translate(65.410510, 24.000000)">
				<path id="Rectangle-2" class="st0" d="M197,60.8c0.4,0.2,0.6,0.5,0.7,0.9s0.1,0.8-0.2,1.1c-0.1,0.2-0.3,0.4-0.5,0.5l0,0
					l-95.1,58c-0.2,0.1-0.5,0.2-0.8,0.2c-0.3,0-0.5-0.1-0.8-0.2l0,0L5.7,64.2C5.4,64,5.1,63.7,5,63.3c-0.1-0.4,0-0.8,0.2-1.1
					c0.1-0.2,0.3-0.4,0.5-0.5l0,0l95.1-56.2c0.2-0.1,0.5-0.2,0.8-0.2s0.5,0.1,0.8,0.2l0,0L197,60.8z"/>
				<polyline id="Rectangle-2-Copy" class="st1" points="200.2,92.9 100.4,154 0,92 				"/>
				<polyline id="Rectangle-2-Copy-2" class="st1" points="200.2,124.1 100.4,185.2 0,123.2 				"/>
			</g>
		</g>
	</g>
</g>
</svg>
