<svg xmlns="http://www.w3.org/2000/svg">
<g id="Page-1" stroke="none" stroke-width="1" fill="none" fill-rule="evenodd"><g id="UBS-Stamford07" transform="translate(-105.000000, -21.000000)" fill="#4A4A4A" stroke="#4A4A4A" stroke-width="0.2"><g id="Group-9" transform="translate(106.000000, 21.600000)"><path d="M15.5877063,19.9262342 L6.14707422,19.9262342 C5.91713805,19.9262342 5.73079573,19.7351906 5.73079573,19.5052544 C5.73079573,19.2753183 5.91713805,19.0842746 6.14707422,19.0842746 L15.5877063,19.0842746 C15.8176424,19.0842746 16.0044121,19.2753183 16.0044121,19.5052544 C16.0044121,19.7351906 15.8176424,19.9262342 15.5877063,19.9262342" id="Fill-1"></path><path d="M17.253675,21.6101534 L4.48110547,21.6101534 C4.2511693,21.6101534 4.06439959,21.4191097 4.06439959,21.1891736 C4.06439959,20.9592374 4.2511693,20.7681938 4.48110547,20.7681938 L17.253675,20.7681938 C17.4836112,20.7681938 17.6703809,20.9592374 17.6703809,21.1891736 C17.6703809,21.4191097 17.4836112,21.6101534 17.253675,21.6101534" id="Fill-3"></path><path d="M18.3260836,17.4930992 L19.159068,17.4930992 L19.159068,10.8292243 L18.3260836,10.8292243 L18.3260836,17.4930992 Z M16.382311,17.4930992 L17.4930992,17.4930992 L17.4930992,10.8292243 L16.382311,10.8292243 L16.382311,17.4930992 Z M14.4385383,17.4930992 L15.5493266,17.4930992 L15.5493266,10.8292243 L14.4385383,10.8292243 L14.4385383,17.4930992 Z M13.6059813,17.4930992 L12.9559201,17.4930992 L12.9559201,14.0970532 C12.9559201,13.0144726 12.1143879,12.1366122 11.0788204,12.1366122 L11.05104,12.1366122 C10.0154725,12.1366122 9.17394027,13.0144726 9.17394027,14.0970532 L9.17394027,17.4930992 L8.05203982,17.4930992 L8.05203982,10.8287969 L13.6059813,10.8287969 L13.6059813,17.4930992 Z M12.1229357,17.4930992 L10.007352,17.4930992 L10.007352,14.0970532 C10.007352,13.4751998 10.4736352,12.970024 11.05104,12.970024 L11.0788204,12.970024 C11.6536608,12.970024 12.1229357,13.4751998 12.1229357,14.0970532 L12.1229357,17.4930992 Z M6.10869454,17.4930992 L7.21948284,17.4930992 L7.21948284,10.8292243 L6.10869454,10.8292243 L6.10869454,17.4930992 Z M4.16492187,17.4930992 L5.27571017,17.4930992 L5.27571017,10.8292243 L4.16492187,10.8292243 L4.16492187,17.4930992 Z M2.49895312,17.4930992 L3.3319375,17.4930992 L3.3319375,10.8292243 L2.49895312,10.8292243 L2.49895312,17.4930992 Z M20.5780049,17.4930992 L19.9920524,17.4930992 L19.9920524,10.8287969 L20.5472328,10.8287969 C20.7780238,10.8287969 20.9639387,10.6428819 20.9639387,10.4125184 C20.9639387,10.1821548 20.7780238,9.99623988 20.5472328,9.99623988 L1.1107883,9.99623988 C0.879997345,9.99623988 0.694082413,10.1821548 0.694082413,10.4125184 C0.694082413,10.6428819 0.879997345,10.8287969 1.1107883,10.8287969 L1.66596875,10.8287969 L1.66596875,17.4930992 L1.20780597,17.4930992 L0,19.3338708 L0,21.3802172 C0,21.6105808 0.185914932,21.7969231 0.416705882,21.7969231 C0.647069442,21.7969231 0.832984374,21.6105808 0.832984374,21.3802172 L0.832984374,19.5809026 L1.65784833,18.3260836 L20.0668457,18.3260836 L20.8250367,19.8061374 L20.8250367,21.3802172 C20.8250367,21.6105808 21.0109517,21.7969231 21.2413152,21.7969231 C21.4721062,21.7969231 21.6580211,21.6105808 21.6580211,21.3802172 L21.6580211,19.6035543 L20.5780049,17.4930992 Z" id="Fill-5"></path><path d="M17.1994813,8.79343438 L4.53572655,8.79343438 C4.38374342,8.79343438 4.26029243,8.64940373 4.26029243,8.41946756 C4.26029243,8.189104 4.38374342,8.04507335 4.53572655,8.04507335 L17.1994813,8.04507335 C17.3514645,8.04507335 17.4749154,8.189104 17.4749154,8.41946756 C17.4749154,8.64940373 17.3514645,8.79343438 17.1994813,8.79343438" id="Fill-7"></path><path d="M11.2455882,0.749609469 C11.2455882,0.477361626 11.0596733,0.23674069 10.8288823,0.23674069 C10.5985188,0.23674069 10.4249982,0.477361626 10.4249982,0.749609469 L10.4249982,4.14651034 L1.2937606,7.23288187 C1.07707354,7.30511089 0.957404155,7.54103052 1.02963317,7.75729019 C1.10186219,7.97696899 1.33521749,8.09621098 1.55446889,8.02398196 L10.9207713,4.89059746 L20.3321808,8.02398196 C20.5518596,8.09279185 20.7869244,7.97568681 20.8595809,7.75729019 C20.9318099,7.54103052 20.8125679,7.30511089 20.5928891,7.23288187 L11.2413143,4.14651034 L11.2413143,3.29130166 L11.2455882,0.749609469 Z" id="Fill-8"></path></g></g></g>
</svg>