<?xml version="1.0" encoding="UTF-8"?>
<svg width="50px" height="19px" viewBox="0 0 50 19" version="1.1" xmlns="http://www.w3.org/2000/svg" xmlns:xlink="http://www.w3.org/1999/xlink">
    <!-- Generator: Sketch 55.2 (78181) - https://sketchapp.com -->
    <title>Group 6</title>
    <desc>Created with Sketch.</desc>
    <defs>
        <polygon id="path-1" points="0 0.0756779661 16.420799 0.0756779661 16.420799 18.1598063 0 18.1598063"></polygon>
    </defs>
    <g id="Page-1" stroke="none" stroke-width="1" fill="none" fill-rule="evenodd">
        <g id="UBS01" transform="translate(-13.000000, -30.000000)">
            <g id="Group-6" transform="translate(13.000000, 30.000000)">
                <g id="Group-3" transform="translate(0.000000, 0.045400)">
                    <mask id="mask-2" fill="white">
                        <use xlink:href="#path-1"></use>
                    </mask>
                    <g id="Clip-2"></g>
                    <path d="M13.4548184,5.30182809 L13.1290315,5.57289346 L13.4730993,6.6940799 L12.4419855,6.13378935 L12.098523,6.40485472 L13.2379903,7.01998789 L12.0260048,7.99625908 L11.7008232,7.56260291 L12.1344794,7.21901937 L11.8091768,6.83911622 L11.3749153,7.18257869 L11.0497337,6.76659806 L11.4833898,6.42301453 L11.1580872,6.00715496 L8.93399516,7.85182809 L11.0497337,9.55170702 L11.4291525,9.08161017 C11.7008232,9.09976998 11.8993705,9.29831719 12.007724,9.55170702 L11.6283051,10.0218039 L11.863414,10.2026755 C12.3878692,9.73257869 13.0747942,9.42507264 13.7801211,9.42507264 C15.2630508,9.42507264 16.420799,10.636937 16.420799,12.1193826 C16.420799,12.6078814 16.2941646,13.1323366 16.0224939,13.566477 L16.420799,13.8741041 C16.4025182,14.1633293 16.1315738,14.4708354 15.8599031,14.5427482 L15.4804843,14.2358475 C14.9555448,14.7419007 14.2684988,15.0129661 13.5450121,15.0129661 C12.0625666,15.0129661 10.9048184,13.8375424 10.9048184,12.336816 C10.9048184,11.8483172 11.0497337,11.342385 11.2665617,10.9262833 L11.0497337,10.7271308 L10.6697094,11.233184 C10.3986441,11.1973487 10.1635351,11.016477 10.091138,10.7271308 L10.4711622,10.2751937 L8.68060533,8.79226392 L8.68060533,11.1431114 L9.27745763,11.1613923 C9.34924939,11.251586 9.40409201,11.3782203 9.40409201,11.5231356 C9.40409201,11.6492857 9.34924939,11.794201 9.29513317,11.9025545 L8.68060533,11.9025545 L8.68060533,12.1919007 C9.98266344,12.4093341 11.0674092,13.5122397 11.0674092,14.8503753 C11.0674092,16.2432324 10.000339,17.346138 8.68060533,17.5629661 L8.68060533,18.033184 C8.55397094,18.1055811 8.39125908,18.1598184 8.24634383,18.1598184 C8.08375303,18.1598184 7.90288136,18.1055811 7.75784504,18.033184 L7.75784504,17.5629661 C6.43811138,17.346138 5.40699758,16.2432324 5.40699758,14.8503753 C5.40699758,13.5122397 6.43811138,12.4093341 7.75784504,12.2101816 L7.75784504,11.9025545 L7.14343826,11.9025545 C7.0709201,11.794201 7.03496368,11.6492857 7.03496368,11.5231356 C7.03496368,11.3782203 7.0709201,11.251586 7.14343826,11.1431114 L7.75784504,11.1431114 L7.75784504,8.79226392 L5.94961259,10.2751937 L6.34731235,10.7271308 C6.25723971,11.016477 6.02213075,11.1973487 5.75118644,11.233184 L5.37116223,10.7271308 L5.13605327,10.9262833 C5.38932203,11.342385 5.51535109,11.8483172 5.51535109,12.336816 C5.51535109,13.8375424 4.35820823,15.0129661 2.87527845,15.0129661 C2.16995157,15.0129661 1.46474576,14.7419007 0.958571429,14.2358475 L0.560266344,14.5427482 C0.307602906,14.4708354 0.0359322034,14.1633293 -2.42130751e-05,13.8741041 L0.379394673,13.566477 C0.145012107,13.1323366 -2.42130751e-05,12.6078814 -2.42130751e-05,12.1193826 C-2.42130751e-05,10.636937 1.15711864,9.42507264 2.64016949,9.42507264 C3.36365617,9.42507264 4.05070218,9.73257869 4.57503632,10.2026755 L4.79246973,10.0402058 L4.41244552,9.55170702 C4.50324455,9.29831719 4.73823245,9.11744552 5.00929782,9.08161017 L5.38932203,9.55170702 L7.5051816,7.85182809 L5.2803632,6.00715496 L4.95506053,6.42301453 L5.38932203,6.76659806 L5.06353511,7.18257869 L4.62927361,6.83911622 L4.30409201,7.21901937 L4.72007264,7.56260291 L4.39476998,7.99625908 L3.20106538,7.01998789 L4.32225182,6.40485472 L3.99646489,6.13378935 L2.96595642,6.6940799 L3.30953995,5.57289346 L2.98363196,5.30182809 L2.60421308,6.5314891 L1.3922276,5.55521792 L1.71813559,5.15751816 L2.13411622,5.50098063 L2.47757869,5.10267554 L2.04331719,4.72325666 L2.36910412,4.34323245 L2.80276029,4.66901937 L3.11038741,4.28899516 L2.16995157,3.54783293 C2.26075061,3.24032688 2.45929782,2.98693705 2.748523,2.80606538 L7.75784504,6.89335351 L7.75784504,4.16236077 L7.25179177,4.16236077 L7.25179177,4.68669492 L6.7457385,4.68669492 L6.7457385,4.16236077 L6.22067797,4.16236077 L6.22067797,4.68669492 L5.69634383,4.68669492 L5.69634383,3.14952785 L6.89004843,3.65618644 L6.89004843,3.22192494 L5.78702179,2.77010896 L6.89004843,2.33584746 L6.89004843,1.91986683 L5.69634383,2.39008475 L5.69634383,0.835121065 L6.22067797,0.835121065 L6.22067797,1.39553269 L6.7457385,1.39553269 L6.7457385,0.835121065 L7.25179177,0.835121065 L7.25179177,1.39553269 L7.75784504,1.39553269 L7.75784504,0.165871671 C7.90288136,0.111634383 8.06547215,0.0756779661 8.22806295,0.0756779661 C8.37297821,0.0756779661 8.53569007,0.111634383 8.68060533,0.165871671 L8.68060533,6.89335351 L13.6899274,2.80606538 C13.9609927,2.98693705 14.1601453,3.24032688 14.2684988,3.54783293 L13.3099031,4.28899516 L13.6356901,4.66901937 L14.0699516,4.34323245 L14.3952542,4.72325666 L13.9609927,5.10267554 L14.2867797,5.50098063 L14.7209201,5.15751816 L15.0462228,5.55521792 L13.8342373,6.5314891 L13.4548184,5.30182809 Z M3.21874092,12.6986804 C3.21874092,13.1323366 3.54464891,13.4038862 3.92394673,13.4398426 L3.29125908,13.9282203 C2.85760291,13.7650242 2.45929782,13.240569 2.45929782,12.788753 C2.45929782,12.644322 2.49585956,12.5536441 2.53169492,12.4452906 C2.47757869,12.4452906 2.44101695,12.4634504 2.40506053,12.4634504 C1.8264891,12.4634504 1.33811138,11.9208354 1.2296368,11.3599395 L1.88072639,10.8537651 C1.86244552,10.9262833 1.86244552,10.9805206 1.86244552,11.0347579 C1.86244552,11.3965012 2.20651332,11.7216828 2.56765133,11.7216828 C2.94767554,11.7216828 3.30953995,11.3965012 3.30953995,11.016477 C3.30953995,10.5462591 2.94767554,10.238632 2.49585956,10.238632 C1.60966102,10.238632 0.741138015,11.0888741 0.741138015,12.2101816 C0.741138015,12.5353632 0.813656174,12.8428692 0.958571429,13.11454 L1.35627119,12.8070339 C1.62733656,12.9336683 1.84476998,13.2046126 1.91668281,13.5122397 L1.51898305,13.8197458 C1.89900726,14.1450484 2.36910412,14.2899637 2.85760291,14.2899637 C3.86983051,14.2899637 4.68411622,13.4762833 4.68411622,12.7527966 C4.68411622,12.336816 4.39476998,11.9750726 3.96062954,11.9750726 C3.56280872,11.9750726 3.21874092,12.2825787 3.21874092,12.6986804 L3.21874092,12.6986804 Z M8.5898063,14.2534019 C8.5898063,14.651707 8.91571429,14.9770097 9.29513317,14.9770097 C9.56668281,14.9770097 9.67515738,14.8685351 9.87430993,14.7060654 L9.87430993,15.5196247 C9.67515738,15.6280993 9.47600484,15.6822155 9.25917676,15.6822155 C8.82491525,15.6822155 8.46377724,15.5555811 8.22806295,15.1761622 C7.97527845,15.5555811 7.61353511,15.6822155 7.17939467,15.6822155 C6.98072639,15.6822155 6.76341404,15.6280993 6.56474576,15.5196247 L6.56474576,14.7060654 C6.7457385,14.886937 6.89004843,14.9770097 7.14343826,14.9770097 C7.54101695,14.9770097 7.84864407,14.651707 7.84864407,14.2534019 C7.84864407,13.8741041 7.59525424,13.5306416 7.17939467,13.5306416 C6.43811138,13.5306416 6.13048426,14.2358475 6.13048426,14.886937 C6.13048426,15.8449274 6.83581114,16.6586077 7.75784504,16.8216828 L7.75784504,16.3333051 C7.90288136,16.2607869 8.06547215,16.2432324 8.21038741,16.2432324 C8.37297821,16.2432324 8.53569007,16.2607869 8.68060533,16.3333051 L8.68060533,16.8216828 C9.53024213,16.6950484 10.3079661,15.7906901 10.3079661,14.886937 C10.3079661,14.2175666 10.0369007,13.5306416 9.25917676,13.5306416 C8.861477,13.5306416 8.5898063,13.8741041 8.5898063,14.2534019 L8.5898063,14.2534019 Z M13.0930751,11.016477 C13.0930751,11.3782203 13.4730993,11.7216828 13.8525182,11.7216828 C14.2142615,11.7216828 14.557724,11.3965012 14.557724,11.0347579 C14.557724,10.9805206 14.5401695,10.9262833 14.5401695,10.8537651 L15.1728571,11.3599395 C15.0645036,11.9750726 14.5217676,12.5178087 13.8890799,12.4452906 C13.9250363,12.5536441 13.9433172,12.644322 13.9433172,12.788753 C13.9433172,13.240569 13.5450121,13.7650242 13.1113559,13.9282203 L12.4779419,13.4398426 C12.876247,13.4038862 13.2014286,13.1323366 13.2014286,12.6986804 C13.2014286,12.2825787 12.8396852,11.9750726 12.4419855,11.9750726 C12.0260048,11.9750726 11.7184988,12.336816 11.7184988,12.7710775 C11.7184988,13.2954116 12.3519128,14.2899637 13.563293,14.2899637 C14.0516707,14.2899637 14.5217676,14.1450484 14.883632,13.8197458 L14.4853269,13.5122397 C14.5760048,13.2046126 14.7568765,12.9336683 15.0462228,12.8070339 L15.4439225,13.11454 C15.5888378,12.8428692 15.6790315,12.5353632 15.6790315,12.2101816 C15.6790315,11.342385 15.0102663,10.238632 13.9433172,10.238632 C13.4907748,10.238632 13.0930751,10.5462591 13.0930751,11.016477 L13.0930751,11.016477 Z" id="Fill-1" fill="#FEFEFE" mask="url(#mask-2)"></path>
                </g>
                <path d="M29.2035472,11.0112954 C29.2035472,14.7581477 27.1553632,15.2081477 25.1065738,15.2081477 C21.58454,15.2081477 20.8353874,13.4097215 20.8353874,10.8365981 L20.8353874,3.5798184 L19.5363559,3.5798184 L19.5363559,2.88006053 L24.4573002,2.88006053 L24.4573002,3.5798184 L23.0583898,3.5798184 L23.0583898,10.6240073 C23.0583898,13.1094794 23.7082688,14.3464044 25.493862,14.3464044 C27.3174697,14.3464044 28.2041525,13.4468886 28.2041525,10.8615375 L28.2041525,3.5798184 L26.8928935,3.5798184 L26.8928935,2.88006053 L30.3899879,2.88006053 L30.3899879,3.5798184 L29.2035472,3.5798184 L29.2035472,11.0112954 Z M32.5507627,14.3713438 L32.5507627,3.5798184 L31.2767918,3.5798184 L31.2767918,2.88006053 L36.7349031,2.88006053 C39.0583898,2.88006053 40.2070581,4.19192494 40.2070581,5.72788136 C40.2070581,7.3644431 38.7209806,8.28829298 37.3970097,8.56299031 C39.9701332,8.80052058 40.6692857,10.4490678 40.6692857,11.660569 C40.6692857,14.1338136 38.5583898,15.0704964 36.4851453,15.0704964 L31.1896247,15.0704964 L31.1896247,14.3713438 L32.5507627,14.3713438 Z M37.9840557,5.86565375 C37.9840557,4.72909201 37.3970097,3.5798184 36.1106901,3.5798184 L34.7238862,3.5798184 L34.7238862,8.26335351 L35.9608111,8.26335351 C37.3220702,8.26335351 37.9840557,7.11468523 37.9840557,5.86565375 L37.9840557,5.86565375 Z M38.4213438,11.660569 C38.4213438,10.0368402 37.7214649,8.95039952 36.0857506,8.95039952 L34.7238862,8.95039952 L34.7238862,14.3713438 L35.8232809,14.3713438 C37.5596005,14.3713438 38.4213438,13.3470097 38.4213438,11.660569 L38.4213438,11.660569 Z M46.1152906,3.4172276 C44.8284867,3.4172276 44.0043947,4.17909201 44.0043947,5.50318402 C44.0043947,6.70245763 45.3034262,7.2766707 46.5646852,7.70124697 C47.3139588,7.96371671 48.2634746,8.31323245 48.9126271,8.93817191 C49.6246126,9.61226392 50.0119007,10.5119007 49.9869613,11.6484625 C49.9370823,13.7714649 48.4508838,15.2081477 45.8277603,15.2203753 C44.8411985,15.2203753 43.3046368,14.995678 42.3806659,14.4585109 L42.280908,11.2610533 L43.0548789,11.2610533 C43.1177119,13.4097215 44.1292131,14.5334504 45.9028208,14.5334504 C47.3266707,14.5334504 48.1134746,13.58454 48.1134746,12.1356295 C48.1134746,10.886477 47.0770339,10.3493099 45.5033051,9.82485472 C44.9909564,9.65015738 43.9794552,9.27497579 43.2674697,8.57582324 C42.6304237,7.93877724 42.3307869,7.1396247 42.3307869,6.29010896 C42.3307869,3.8046368 44.1042736,2.73030266 46.3022155,2.73030266 C47.1769128,2.73030266 48.4880508,3.04265133 49.2500363,3.47993947 L49.3248547,6.25294189 L48.5508838,6.25294189 C48.388293,4.27909201 47.5264286,3.4172276 46.1152906,3.4172276 L46.1152906,3.4172276 Z" id="Fill-4" fill="#FEFEFE"></path>
            </g>
        </g>
    </g>
</svg>