<?xml version="1.0" encoding="UTF-8"?>
<svg width="38px" height="25px" viewBox="0 0 38 25" version="1.1" xmlns="http://www.w3.org/2000/svg" xmlns:xlink="http://www.w3.org/1999/xlink">
    <title>Group 11</title>
    <g id="Page-1" stroke="none" stroke-width="1" fill="none" fill-rule="evenodd">
        <g id="Offer08" transform="translate(-19.000000, -19.000000)" fill="#FFFFFF">
            <g id="Group-11" transform="translate(19.601973, 19.706167)">
                <path d="M0,0 L12.3650851,8.11988204 L14.1231664,11.1527086 L12.3650851,11.7938328 L14.8717727,15.3649578 L17.8980267,14.205328 L25.9272701,19.3801795 L18.3980267,24.2938328 L6.7841072,16.9311101 L2.5836115,9.92364177 L7.51776297,12.2542511 L7.16563039,10.9339773 L1.5689335,8.11988204 C0.961687003,5.64397363 0.658063756,4.40601942 0.658063756,4.40601942 C0.658063756,4.40601942 2.55241346,5.52298178 6.34111288,7.75690648 L5.97405146,6.43562492 L0.285325927,2.89159085 L0,0 Z" id="Path-5"></path>
                <path d="M13.6312634,0 L25.9963485,8.11988204 L28.3761866,12.1469164 L31.9471425,10.1513654 L37.0194908,12.1469164 L35.4125657,14.498085 L32.7527276,13.5006062 L23.9176652,18.8916194 L20.4153706,16.9311101 L16.2148749,9.92364177 L21.1490264,12.2542511 L20.7968938,10.9339773 L15.2001969,8.11988204 C14.5929504,5.64397363 14.2893272,4.40601942 14.2893272,4.40601942 C14.2893272,4.40601942 16.1836769,5.52298178 19.9723763,7.75690648 L19.6053149,6.43562492 L13.9165893,2.89159085 L13.6312634,0 Z" id="Path-5-Copy" transform="translate(25.325377, 9.445810) scale(-1, 1) translate(-25.325377, -9.445810) "></path>
            </g>
        </g>
    </g>
</svg>